<svg width="218" height="51" viewBox="0 0 218 51" fill="none" xmlns="http://www.w3.org/2000/svg">
<path d="M15.4 36.488H17.808C20.5707 36.488 22.5493 36.1333 23.744 35.424C24.9387 34.7147 25.536 33.576 25.536 32.008C25.536 30.44 24.9387 29.3013 23.744 28.592C22.5493 27.8827 20.5707 27.528 17.808 27.528H15.4V36.488ZM15.4 19.352H17.416C20.8507 19.352 22.568 17.9893 22.568 15.264C22.568 12.5387 20.8507 11.176 17.416 11.176H15.4V19.352ZM4.424 2.776H20.776C24.6587 2.776 27.608 3.70933 29.624 5.576C31.64 7.44266 32.648 10.1307 32.648 13.64C32.648 15.768 32.256 17.5413 31.472 18.96C30.7253 20.3413 29.568 21.5173 28 22.488C29.568 22.7867 30.8933 23.2533 31.976 23.888C33.096 24.4853 33.992 25.232 34.664 26.128C35.3733 27.024 35.8773 28.032 36.176 29.152C36.4747 30.272 36.624 31.4667 36.624 32.736C36.624 34.7147 36.2693 36.4693 35.56 38C34.888 39.5307 33.9173 40.8187 32.648 41.864C31.416 42.9093 29.904 43.6933 28.112 44.216C26.32 44.7387 24.304 45 22.064 45H4.424V2.776ZM65.5559 29.32L60.6279 15.264L55.6999 29.32H65.5559ZM68.4679 37.664H52.7879L50.2679 45H38.5639L54.6359 2.776H66.6199L82.6919 45H70.9879L68.4679 37.664ZM87.4943 45V2.776H98.4703L118.742 28.592V2.776H129.662V45H118.742L98.4703 19.184V45H87.4943ZM148.71 24.728L133.31 2.776H146.414L154.254 14.312L162.038 2.776H175.142L159.686 24.728V45H148.71V24.728Z" fill="#292929"/>
<path d="M186.5 18.658C186.5 20.038 186.761 21.3107 187.282 22.476C187.803 23.6413 188.509 24.6533 189.398 25.512C190.287 26.3707 191.315 27.0453 192.48 27.536C193.676 27.996 194.933 28.226 196.252 28.226C197.571 28.226 198.813 27.996 199.978 27.536C201.174 27.0453 202.217 26.3707 203.106 25.512C204.026 24.6533 204.747 23.6413 205.268 22.476C205.789 21.3107 206.05 20.038 206.05 18.658C206.05 17.278 205.789 16.0053 205.268 14.84C204.747 13.6747 204.026 12.6627 203.106 11.804C202.217 10.9453 201.174 10.286 199.978 9.826C198.813 9.33533 197.571 9.09 196.252 9.09C194.933 9.09 193.676 9.33533 192.48 9.826C191.315 10.286 190.287 10.9453 189.398 11.804C188.509 12.6627 187.803 13.6747 187.282 14.84C186.761 16.0053 186.5 17.278 186.5 18.658ZM177.07 18.658C177.07 16.082 177.545 13.69 178.496 11.482C179.447 9.24333 180.765 7.296 182.452 5.64C184.139 3.984 186.147 2.696 188.478 1.776C190.839 0.825332 193.431 0.349998 196.252 0.349998C199.043 0.349998 201.619 0.825332 203.98 1.776C206.341 2.696 208.365 3.984 210.052 5.64C211.769 7.296 213.103 9.24333 214.054 11.482C215.005 13.69 215.48 16.082 215.48 18.658C215.48 21.234 215.005 23.6413 214.054 25.88C213.103 28.088 211.769 30.02 210.052 31.676C208.365 33.332 206.341 34.6353 203.98 35.586C201.619 36.506 199.043 36.966 196.252 36.966C193.431 36.966 190.839 36.506 188.478 35.586C186.147 34.6353 184.139 33.332 182.452 31.676C180.765 30.02 179.447 28.088 178.496 25.88C177.545 23.6413 177.07 21.234 177.07 18.658Z" fill="#292929"/>
<path d="M213.684 46.65L179 46.65L179 37.634L213.684 37.634L213.684 46.65Z" fill="#292929"/>
</svg>
